<svg width="33" height="32" viewBox="0 0 33 32" fill="none" xmlns="http://www.w3.org/2000/svg">
<g clip-path="url(#clip0_16_0)">
<path d="M16.155 0.2192C25.218 0.1532 32.5596 7.3552 32.5596 16.1409V30.32C32.5596 31.127 31.8847 31.7813 31.0522 31.7813H16.4251C7.36184 31.7813 -0.0676651 24.6644 0.00044632 15.879C0.0672188 7.25926 7.26289 0.28395 16.155 0.2192Z" fill="#E2C700"/>
<path d="M2.69266 7.30569C5.44006 18.0384 15.3208 25.9841 27.0893 25.9841C28.968 25.9841 30.7985 25.7812 32.5596 25.3973V30.3201C32.5596 31.1271 31.8848 31.7813 31.0522 31.7813H16.4251C7.36184 31.7813 -0.0676651 24.6645 0.00044632 15.8791C0.0249901 12.7119 1.01285 9.76757 2.69266 7.30569Z" fill="#F7E353"/>
</g>
<defs>
<clipPath id="clip0_16_0">
<rect width="32.5596" height="32" fill="white" transform="matrix(-1 0 0 1 32.5596 0)"/>
</clipPath>
</defs>
</svg>
